<?xml version="1.0" encoding="UTF-8" standalone="yes"?>
<!DOCTYPE svg PUBLIC "-//W3C//DTD SVG 1.1//EN" "http://www.w3.org/Graphics/SVG/1.1/DTD/svg11.dtd">

<svg width="500" height="500" viewBox="0 0 500 500" xmlns="http://www.w3.org/2000/svg" xmlns:xlink="http://www.w3.org/1999/xlink" version="1.1" baseProfile="full">
    <g transform="scale(1,-1) translate(0,-500)">
        <path d="M 271.258611 303.200000 L 271.258611 576.000000 L 96.622222 576.000000 L 78.422555 574.167813 L 61.321546 568.932502 L 45.728498 560.685941 L 32.052717 549.820005 L 20.703505 536.726568 L 12.090168 521.797506 L 6.622009 505.424691 L 4.708333 488.000000 L 4.708333 224.000000 L 6.622009 206.069999 L 12.090168 189.459999 L 20.703505 174.499999 L 32.052717 161.519999 L 45.728498 150.849999 L 61.321546 142.820000 L 78.422555 137.760000 L 96.622222 136.000000 L 142.579167 136.000000 L 142.579167 4.000000 L 280.450000 136.000000 L 510.234722 136.000000 L 528.962173 137.760000 L 546.310918 142.820000 L 561.936279 150.849999 L 575.493578 161.519999 L 586.638139 174.499999 L 595.025283 189.459999 L 600.310333 206.069999 L 602.148611 224.000000 L 602.148611 303.200000 L 592.957222 303.200000 Z M 831.933333 796.000000 L 418.320833 796.000000 L 400.121161 794.167813 L 383.020149 788.932502 L 367.427102 780.685941 L 353.751321 769.820005 L 342.402112 756.726568 L 333.788777 741.797506 L 328.320620 725.424691 L 326.406944 708.000000 L 326.406944 356.000000 L 648.105556 356.000000 L 785.976389 224.000000 L 785.976389 356.000000 L 831.933333 356.000000 L 850.660784 357.760001 L 868.009529 362.820002 L 883.634890 370.850004 L 897.192189 381.520005 L 908.336750 394.500006 L 916.723894 409.460006 L 922.008944 426.070004 L 923.847222 444.000000 L 923.847222 708.000000 L 922.008944 725.424691 L 916.723894 741.797506 L 908.336750 756.726568 L 897.192189 769.820005 L 883.634890 780.685941 L 868.009529 788.932502 L 850.660784 794.167813 L 831.933333 796.000000 Z" transform="scale(0.500000,0.500000) translate(45.000000,92.000000)" fill="#e89958" opacity="1.000000"></path>
    </g>
</svg>